<svg xmlns="http://www.w3.org/2000/svg" style="display: none;">
  <!-- Weather Icons -->
  
  <!-- Sun Icon -->
  <symbol id="sun" viewBox="0 0 24 24">
    <circle cx="12" cy="12" r="5" fill="currentColor"/>
    <path d="M12 1v2M12 21v2M4.22 4.22l1.42 1.42M18.36 18.36l1.42 1.42M1 12h2M21 12h2M4.22 19.78l1.42-1.42M18.36 5.64l1.42-1.42" stroke="currentColor" stroke-width="2" stroke-linecap="round" stroke-linejoin="round"/>
  </symbol>
  
  <!-- Moon Icon -->
  <symbol id="moon" viewBox="0 0 24 24">
    <path d="M21 12.79A9 9 0 1 1 11.21 3 7 7 0 0 0 21 12.79z" fill="currentColor"/>
  </symbol>
  
  <!-- Cloud Icon -->
  <symbol id="cloud" viewBox="0 0 24 24">
    <path d="M18 10h-1.26A8 8 0 1 0 9 20h9a5 5 0 0 0 0-10z" fill="currentColor"/>
  </symbol>
  
  <!-- Cloud with Sun Icon -->
  <symbol id="cloud-sun" viewBox="0 0 24 24">
    <path d="M13 2L3 14h9l-1 8 10-12h-9l1-8z" fill="currentColor"/>
  </symbol>
  
  <!-- Rain Icon -->
  <symbol id="rain" viewBox="0 0 24 24">
    <path d="M16 13v8l-4-4-4 4v-8" stroke="currentColor" stroke-width="2" stroke-linecap="round" stroke-linejoin="round" fill="none"/>
    <path d="M6 13H2l4-4 4 4h-4" stroke="currentColor" stroke-width="2" stroke-linecap="round" stroke-linejoin="round" fill="none"/>
  </symbol>
  
  <!-- Snow Icon -->
  <symbol id="snow" viewBox="0 0 24 24">
    <path d="M12 2v20M2 12h20M6.34 6.34l11.32 11.32M6.34 17.66L17.66 6.34" stroke="currentColor" stroke-width="2" stroke-linecap="round" stroke-linejoin="round"/>
    <circle cx="12" cy="5" r="1" fill="currentColor"/>
    <circle cx="12" cy="19" r="1" fill="currentColor"/>
    <circle cx="5" cy="12" r="1" fill="currentColor"/>
    <circle cx="19" cy="12" r="1" fill="currentColor"/>
    <circle cx="8.5" cy="8.5" r="1" fill="currentColor"/>
    <circle cx="15.5" cy="15.5" r="1" fill="currentColor"/>
    <circle cx="8.5" cy="15.5" r="1" fill="currentColor"/>
    <circle cx="15.5" cy="8.5" r="1" fill="currentColor"/>
  </symbol>
  
  <!-- Thunder Icon -->
  <symbol id="thunder" viewBox="0 0 24 24">
    <path d="M19 16.9A5 5 0 0 0 18 7h-1.26a8 8 0 1 0-11.62 9" stroke="currentColor" stroke-width="2" stroke-linecap="round" stroke-linejoin="round" fill="none"/>
    <path d="M13 11L9 17h3l-1 4 4-6h-3l1-4z" fill="currentColor"/>
  </symbol>
  
  <!-- Mist/Fog Icon -->
  <symbol id="mist" viewBox="0 0 24 24">
    <path d="M3 15h18M3 9h18M3 21h18" stroke="currentColor" stroke-width="2" stroke-linecap="round" stroke-linejoin="round"/>
  </symbol>
  
  <!-- Wind Icon -->
  <symbol id="wind" viewBox="0 0 24 24">
    <path d="M9.59 4.59A2 2 0 1 1 11 8H2m10.59 11.41A2 2 0 1 0 14 16H2m15.73-8.27A2.5 2.5 0 1 1 19.5 12H2" stroke="currentColor" stroke-width="2" stroke-linecap="round" stroke-linejoin="round" fill="none"/>
  </symbol>
  
  <!-- Thermometer Icon -->
  <symbol id="thermometer" viewBox="0 0 24 24">
    <path d="M14 4v10.54a4 4 0 1 1-4 0V4a2 2 0 0 1 4 0z" stroke="currentColor" stroke-width="2" stroke-linecap="round" stroke-linejoin="round" fill="none"/>
    <path d="M12 14a2 2 0 1 0 0 4 2 2 0 0 0 0-4z" fill="currentColor"/>
  </symbol>
  
  <!-- Droplet Icon -->
  <symbol id="droplet" viewBox="0 0 24 24">
    <path d="M12 2.69l5.66 5.66a8 8 0 1 1-11.31 0z" fill="currentColor"/>
  </symbol>
  
  <!-- Eye Icon -->
  <symbol id="eye" viewBox="0 0 24 24">
    <path d="M1 12s4-8 11-8 11 8 11 8-4 8-11 8-11-8-11-8z" stroke="currentColor" stroke-width="2" stroke-linecap="round" stroke-linejoin="round" fill="none"/>
    <circle cx="12" cy="12" r="3" stroke="currentColor" stroke-width="2" stroke-linecap="round" stroke-linejoin="round" fill="none"/>
  </symbol>
  
  <!-- Gauge Icon -->
  <symbol id="gauge" viewBox="0 0 24 24">
    <path d="M12 1a11 11 0 1 0 11 11" stroke="currentColor" stroke-width="2" stroke-linecap="round" stroke-linejoin="round" fill="none"/>
    <path d="M21 12c0 1.66-1.34 3-3 3s-3-1.34-3-3" stroke="currentColor" stroke-width="2" stroke-linecap="round" stroke-linejoin="round" fill="none"/>
    <circle cx="12" cy="12" r="1" fill="currentColor"/>
  </symbol>
  
  <!-- Sunrise Icon -->
  <symbol id="sunrise" viewBox="0 0 24 24">
    <path d="M17 18a5 5 0 0 0-10 0" stroke="currentColor" stroke-width="2" stroke-linecap="round" stroke-linejoin="round" fill="none"/>
    <circle cx="12" cy="9" r="4" stroke="currentColor" stroke-width="2" stroke-linecap="round" stroke-linejoin="round" fill="none"/>
    <path d="M12 1v2M21 12h2M19.09 4.91l1.41-1.41M4.91 4.91L3.5 3.5M1 12h2M12 20v2" stroke="currentColor" stroke-width="2" stroke-linecap="round" stroke-linejoin="round"/>
    <path d="M8 22h8" stroke="currentColor" stroke-width="2" stroke-linecap="round" stroke-linejoin="round"/>
  </symbol>
  
  <!-- Sunset Icon -->
  <symbol id="sunset" viewBox="0 0 24 24">
    <path d="M17 18a5 5 0 0 0-10 0" stroke="currentColor" stroke-width="2" stroke-linecap="round" stroke-linejoin="round" fill="none"/>
    <circle cx="12" cy="9" r="4" stroke="currentColor" stroke-width="2" stroke-linecap="round" stroke-linejoin="round" fill="none"/>
    <path d="M12 1v2M21 12h2M19.09 4.91l1.41-1.41M4.91 4.91L3.5 3.5M1 12h2M12 20v2" stroke="currentColor" stroke-width="2" stroke-linecap="round" stroke-linejoin="round"/>
    <path d="M8 22h8" stroke="currentColor" stroke-width="2" stroke-linecap="round" stroke-linejoin="round"/>
    <path d="M16 5l-4 4-4-4" stroke="currentColor" stroke-width="2" stroke-linecap="round" stroke-linejoin="round"/>
  </symbol>
  
  <!-- UV Index Icon -->
  <symbol id="uv-index" viewBox="0 0 24 24">
    <circle cx="12" cy="12" r="10" stroke="currentColor" stroke-width="2" stroke-linecap="round" stroke-linejoin="round" fill="none"/>
    <path d="M8 12l2 2 4-4" stroke="currentColor" stroke-width="2" stroke-linecap="round" stroke-linejoin="round" fill="none"/>
    <path d="M12 6V4M12 20v-2M18 12h2M4 12H2M17.66 6.34l1.41-1.41M4.93 17.07l1.41-1.41M6.34 6.34L4.93 4.93M17.07 17.07l1.41 1.41" stroke="currentColor" stroke-width="2" stroke-linecap="round" stroke-linejoin="round"/>
  </symbol>
  
  <!-- Navigation Icons -->
  
  <!-- Search Icon -->
  <symbol id="search" viewBox="0 0 24 24">
    <circle cx="11" cy="11" r="8" stroke="currentColor" stroke-width="2" stroke-linecap="round" stroke-linejoin="round" fill="none"/>
    <path d="M21 21l-4.35-4.35" stroke="currentColor" stroke-width="2" stroke-linecap="round" stroke-linejoin="round"/>
  </symbol>
  
  <!-- Location Icon -->
  <symbol id="location" viewBox="0 0 24 24">
    <path d="M21 10c0 7-9 13-9 13s-9-6-9-13a9 9 0 0 1 18 0z" stroke="currentColor" stroke-width="2" stroke-linecap="round" stroke-linejoin="round" fill="none"/>
    <circle cx="12" cy="10" r="3" stroke="currentColor" stroke-width="2" stroke-linecap="round" stroke-linejoin="round" fill="none"/>
  </symbol>
  
  <!-- Crosshairs Icon -->
  <symbol id="crosshairs" viewBox="0 0 24 24">
    <circle cx="12" cy="12" r="10" stroke="currentColor" stroke-width="2" stroke-linecap="round" stroke-linejoin="round" fill="none"/>
    <path d="M22 12h-4M6 12H2M12 6V2M12 22v-4" stroke="currentColor" stroke-width="2" stroke-linecap="round" stroke-linejoin="round"/>
  </symbol>
  
  <!-- Chevron Left Icon -->
  <symbol id="chevron-left" viewBox="0 0 24 24">
    <path d="M15 18l-6-6 6-6" stroke="currentColor" stroke-width="2" stroke-linecap="round" stroke-linejoin="round" fill="none"/>
  </symbol>
  
  <!-- Chevron Right Icon -->
  <symbol id="chevron-right" viewBox="0 0 24 24">
    <path d="M9 18l6-6-6-6" stroke="currentColor" stroke-width="2" stroke-linecap="round" stroke-linejoin="round" fill="none"/>
  </symbol>
  
  <!-- Close Icon -->
  <symbol id="close" viewBox="0 0 24 24">
    <path d="M18 6L6 18M6 6l12 12" stroke="currentColor" stroke-width="2" stroke-linecap="round" stroke-linejoin="round"/>
  </symbol>
  
  <!-- Menu Icon -->
  <symbol id="menu" viewBox="0 0 24 24">
    <path d="M3 12h18M3 6h18M3 18h18" stroke="currentColor" stroke-width="2" stroke-linecap="round" stroke-linejoin="round"/>
  </symbol>
  
  <!-- Settings Icon -->
  <symbol id="settings" viewBox="0 0 24 24">
    <circle cx="12" cy="12" r="3" stroke="currentColor" stroke-width="2" stroke-linecap="round" stroke-linejoin="round" fill="none"/>
    <path d="M19.4 15a1.65 1.65 0 0 0 .33 1.82l.06.06a2 2 0 0 1 0 2.83 2 2 0 0 1-2.83 0l-.06-.06a1.65 1.65 0 0 0-1.82-.33 1.65 1.65 0 0 0-1 1.51V21a2 2 0 0 1-2 2 2 2 0 0 1-2-2v-.09A1.65 1.65 0 0 0 9 19.4a1.65 1.65 0 0 0-1.82.33l-.06.06a2 2 0 0 1-2.83 0 2 2 0 0 1 0-2.83l.06-.06a1.65 1.65 0 0 0 .33-1.82 1.65 1.65 0 0 0-1.51-1H3a2 2 0 0 1-2-2 2 2 0 0 1 2-2h.09A1.65 1.65 0 0 0 4.6 9a1.65 1.65 0 0 0-.33-1.82l-.06-.06a2 2 0 0 1 0-2.83 2 2 0 0 1 2.83 0l.06.06a1.65 1.65 0 0 0 1.82.33H9a1.65 1.65 0 0 0 1-1.51V3a2 2 0 0 1 2-2 2 2 0 0 1 2 2v.09a1.65 1.65 0 0 0 1 1.51 1.65 1.65 0 0 0 1.82-.33l.06-.06a2 2 0 0 1 2.83 0 2 2 0 0 1 0 2.83l-.06.06a1.65 1.65 0 0 0-.33 1.82V9a1.65 1.65 0 0 0 1.51 1H21a2 2 0 0 1 2 2 2 2 0 0 1-2 2h-.09a1.65 1.65 0 0 0-1.51 1z" stroke="currentColor" stroke-width="2" stroke-linecap="round" stroke-linejoin="round" fill="none"/>
  </symbol>
  
  <!-- Refresh Icon -->
  <symbol id="refresh" viewBox="0 0 24 24">
    <path d="M23 4v6h-6" stroke="currentColor" stroke-width="2" stroke-linecap="round" stroke-linejoin="round" fill="none"/>
    <path d="M20.49 15a9 9 0 1 1-2.12-9.36L23 10" stroke="currentColor" stroke-width="2" stroke-linecap="round" stroke-linejoin="round" fill="none"/>
  </symbol>
  
  <!-- Calendar Icon -->
  <symbol id="calendar" viewBox="0 0 24 24">
    <rect x="3" y="4" width="18" height="18" rx="2" ry="2" stroke="currentColor" stroke-width="2" stroke-linecap="round" stroke-linejoin="round" fill="none"/>
    <path d="M16 2v4M8 2v4M3 10h18" stroke="currentColor" stroke-width="2" stroke-linecap="round" stroke-linejoin="round"/>
  </symbol>
  
  <!-- Clock Icon -->
  <symbol id="clock" viewBox="0 0 24 24">
    <circle cx="12" cy="12" r="10" stroke="currentColor" stroke-width="2" stroke-linecap="round" stroke-linejoin="round" fill="none"/>
    <path d="M12 6v6l4 2" stroke="currentColor" stroke-width="2" stroke-linecap="round" stroke-linejoin="round"/>
  </symbol>
  
  <!-- Alert Triangle Icon -->
  <symbol id="alert-triangle" viewBox="0 0 24 24">
    <path d="M10.29 3.86L1.82 18a2 2 0 0 0 1.71 3h16.94a2 2 0 0 0 1.71-3L13.71 3.86a2 2 0 0 0-3.42 0z" stroke="currentColor" stroke-width="2" stroke-linecap="round" stroke-linejoin="round" fill="none"/>
    <path d="M12 9v4M12 17h.01" stroke="currentColor" stroke-width="2" stroke-linecap="round" stroke-linejoin="round"/>
  </symbol>
  
  <!-- Info Icon -->
  <symbol id="info" viewBox="0 0 24 24">
    <circle cx="12" cy="12" r="10" stroke="currentColor" stroke-width="2" stroke-linecap="round" stroke-linejoin="round" fill="none"/>
    <path d="M12 16v-4M12 8h.01" stroke="currentColor" stroke-width="2" stroke-linecap="round" stroke-linejoin="round"/>
  </symbol>
  
  <!-- Loading Spinner -->
  <symbol id="spinner" viewBox="0 0 24 24">
    <path d="M21 12a9 9 0 1 1-6.219-8.56" stroke="currentColor" stroke-width="2" stroke-linecap="round" stroke-linejoin="round" fill="none"/>
  </symbol>
  
  <!-- Activity Bars -->
  <symbol id="activity" viewBox="0 0 24 24">
    <path d="M22 12h-4l-3 9L9 3l-3 9H2" stroke="currentColor" stroke-width="2" stroke-linecap="round" stroke-linejoin="round" fill="none"/>
  </symbol>
  
  <!-- Trending Up Icon -->
  <symbol id="trending-up" viewBox="0 0 24 24">
    <path d="M23 6l-9.5 9.5-5-5L1 18" stroke="currentColor" stroke-width="2" stroke-linecap="round" stroke-linejoin="round" fill="none"/>
    <path d="M17 6h6v6" stroke="currentColor" stroke-width="2" stroke-linecap="round" stroke-linejoin="round" fill="none"/>
  </symbol>
  
  <!-- Trending Down Icon -->
  <symbol id="trending-down" viewBox="0 0 24 24">
    <path d="M23 18l-9.5-9.5-5 5L1 6" stroke="currentColor" stroke-width="2" stroke-linecap="round" stroke-linejoin="round" fill="none"/>
    <path d="M17 18h6v-6" stroke="currentColor" stroke-width="2" stroke-linecap="round" stroke-linejoin="round" fill="none"/>
  </symbol>
  
  <!-- Shield Icon -->
  <symbol id="shield" viewBox="0 0 24 24">
    <path d="M12 22s8-4 8-10V5l-8-3-8 3v7c0 6 8 10 8 10z" stroke="currentColor" stroke-width="2" stroke-linecap="round" stroke-linejoin="round" fill="none"/>
  </symbol>
</svg>
